<svg width="175" height="136" viewBox="0 0 175 136" fill="none" xmlns="http://www.w3.org/2000/svg">
<mask id="path-1-outside-1_9_5" maskUnits="userSpaceOnUse" x="61" y="25" width="118" height="84" fill="black">
<rect fill="white" x="61" y="25" width="118" height="84"/>
<path d="M161.749 34.66L160.039 37.27C153.619 47.23 148.099 56.05 143.479 63.73C138.919 71.35 135.109 78.37 132.049 84.79L132.049 100H108.559V83.26C106.339 78.76 103.729 74.14 100.729 69.4C97.7288 64.6 93.4688 58.03 87.9488 49.69C83.6288 43.33 80.3288 38.32 78.0488 34.66L103.249 34.66C105.049 38.32 107.989 43.75 112.069 50.95C116.149 58.27 118.939 63.43 120.439 66.43C122.539 62.05 125.359 56.68 128.899 50.32C133.039 42.88 135.829 37.66 137.269 34.66L161.749 34.66Z"/>
</mask>
<path d="M161.749 34.66L160.039 37.27C153.619 47.23 148.099 56.05 143.479 63.73C138.919 71.35 135.109 78.37 132.049 84.79L132.049 100H108.559V83.26C106.339 78.76 103.729 74.14 100.729 69.4C97.7288 64.6 93.4688 58.03 87.9488 49.69C83.6288 43.33 80.3288 38.32 78.0488 34.66L103.249 34.66C105.049 38.32 107.989 43.75 112.069 50.95C116.149 58.27 118.939 63.43 120.439 66.43C122.539 62.05 125.359 56.68 128.899 50.32C133.039 42.88 135.829 37.66 137.269 34.66L161.749 34.66Z" fill="black"/>
<path d="M161.749 34.66L169.277 39.5922L178.405 25.66H161.749V34.66ZM160.039 37.27L152.511 32.3378L152.492 32.3658L152.474 32.394L160.039 37.27ZM143.479 63.73L135.767 59.0907L135.761 59.0996L135.756 59.1085L143.479 63.73ZM132.049 84.79L123.924 80.9176L123.049 82.7548V84.79H132.049ZM132.049 100V109H141.049V100H132.049ZM108.559 100H99.5588V109H108.559V100ZM108.559 83.26H117.559V81.1608L116.63 79.2782L108.559 83.26ZM100.729 69.4L93.0968 74.17L93.1104 74.1916L93.124 74.2132L100.729 69.4ZM87.9488 49.69L95.4539 44.7226L95.4241 44.6777L95.3938 44.6331L87.9488 49.69ZM78.0488 34.66V25.66H61.8388L70.4098 39.4187L78.0488 34.66ZM103.249 34.66L111.325 30.6881L108.852 25.66H103.249V34.66ZM112.069 50.95L119.93 46.5683L119.915 46.5405L119.899 46.5129L112.069 50.95ZM120.439 66.43L112.389 70.4549L120.608 86.8938L128.554 70.321L120.439 66.43ZM128.899 50.32L136.763 54.6971L136.763 54.6962L128.899 50.32ZM137.269 34.66V25.66H131.606L129.155 30.7654L137.269 34.66ZM154.221 29.7278L152.511 32.3378L167.567 42.2022L169.277 39.5922L154.221 29.7278ZM152.474 32.394C146.019 42.4089 140.447 51.3104 135.767 59.0907L151.191 68.3693C155.751 60.7895 161.219 52.0511 167.604 42.146L152.474 32.394ZM135.756 59.1085C131.084 66.9149 127.132 74.1882 123.924 80.9176L140.173 88.6623C143.086 82.5518 146.753 75.7851 151.202 68.3515L135.756 59.1085ZM123.049 84.79V100H141.049L141.049 84.79H123.049ZM132.049 91H108.559V109H132.049V91ZM117.559 100V83.26H99.5588V100H117.559ZM116.63 79.2782C114.254 74.4621 111.484 69.5647 108.334 64.5868L93.124 74.2132C95.9735 78.7153 98.4235 83.0579 100.488 87.2418L116.63 79.2782ZM108.361 64.63C105.3 59.732 100.99 53.0867 95.4539 44.7226L80.4438 54.6574C85.9479 62.9733 90.1581 69.468 93.0968 74.17L108.361 64.63ZM95.3938 44.6331C91.0976 38.3082 87.8748 33.4119 85.6878 29.9013L70.4098 39.4187C72.7829 43.2281 76.16 48.3518 80.5039 54.7469L95.3938 44.6331ZM78.0488 43.66L103.249 43.66L103.249 25.66L78.0488 25.66V43.66ZM95.1727 38.6319C97.0938 42.5382 100.141 48.1559 104.239 55.3871L119.899 46.5129C115.837 39.3441 113.004 34.1018 111.325 30.6881L95.1727 38.6319ZM104.208 55.3317C108.29 62.6565 110.99 67.6563 112.389 70.4549L128.489 62.4051C126.888 59.2037 124.008 53.8835 119.93 46.5683L104.208 55.3317ZM128.554 70.321C130.547 66.1647 133.273 60.9676 136.763 54.6971L121.035 45.9429C117.445 52.3923 114.531 57.9353 112.323 62.539L128.554 70.321ZM136.763 54.6962C140.897 47.267 143.811 41.8292 145.383 38.5546L129.155 30.7654C127.847 33.4908 125.18 38.493 121.034 45.9438L136.763 54.6962ZM137.269 43.66L161.749 43.66V25.66L137.269 25.66V43.66Z" fill="white" mask="url(#path-1-outside-1_9_5)"/>
<mask id="path-3-outside-2_9_5" maskUnits="userSpaceOnUse" x="6" y="25.1286" width="97" height="88" fill="black">
<rect fill="white" x="6" y="25.1286" width="97" height="88"/>
<path d="M71.7054 69.4726C86.2974 69.4726 93.5934 74.1126 93.5934 83.3926C93.5934 87.7446 92.6014 91.4566 90.6174 94.5286C88.6334 97.5366 85.0814 99.9046 79.9614 101.633C74.8414 103.297 67.7374 104.129 58.6494 104.129L15.4494 104.129C15.9614 91.7126 16.2174 80.0966 16.2174 69.2806C16.2174 58.4646 15.9614 46.8486 15.4494 34.4326L38.0094 34.4326V34.5286L58.4574 34.5286C66.3934 34.5286 72.6334 35.2006 77.1774 36.5446C81.7854 37.8246 85.0174 39.7126 86.8734 42.2086C88.7934 44.7046 89.7534 47.8726 89.7534 51.7126C89.7534 55.6166 88.3774 59.1046 85.6254 62.1766C82.9374 65.1846 78.2974 67.6166 71.7054 69.4726ZM38.0094 52.0006V60.9286L56.4414 60.9286C60.4094 60.9286 63.1614 60.5766 64.6974 59.8726C66.2974 59.1686 67.0974 57.8886 67.0974 56.0326C67.0974 54.5606 66.2654 53.5366 64.6014 52.9606C63.0014 52.3206 60.2814 52.0006 56.4414 52.0006L38.0094 52.0006ZM56.4414 86.5606C59.7694 86.5606 62.2974 86.4326 64.0254 86.1766C65.8174 85.8566 67.0974 85.3446 67.8654 84.6406C68.6334 83.8726 69.0174 82.8486 69.0174 81.5686C69.0174 79.9046 68.0894 78.7206 66.2334 78.0166C64.4414 77.2486 61.1774 76.8646 56.4414 76.8646L38.0094 76.8646V86.5606L56.4414 86.5606Z"/>
</mask>
<path d="M71.7054 69.4726C86.2974 69.4726 93.5934 74.1126 93.5934 83.3926C93.5934 87.7446 92.6014 91.4566 90.6174 94.5286C88.6334 97.5366 85.0814 99.9046 79.9614 101.633C74.8414 103.297 67.7374 104.129 58.6494 104.129L15.4494 104.129C15.9614 91.7126 16.2174 80.0966 16.2174 69.2806C16.2174 58.4646 15.9614 46.8486 15.4494 34.4326L38.0094 34.4326V34.5286L58.4574 34.5286C66.3934 34.5286 72.6334 35.2006 77.1774 36.5446C81.7854 37.8246 85.0174 39.7126 86.8734 42.2086C88.7934 44.7046 89.7534 47.8726 89.7534 51.7126C89.7534 55.6166 88.3774 59.1046 85.6254 62.1766C82.9374 65.1846 78.2974 67.6166 71.7054 69.4726ZM38.0094 52.0006V60.9286L56.4414 60.9286C60.4094 60.9286 63.1614 60.5766 64.6974 59.8726C66.2974 59.1686 67.0974 57.8886 67.0974 56.0326C67.0974 54.5606 66.2654 53.5366 64.6014 52.9606C63.0014 52.3206 60.2814 52.0006 56.4414 52.0006L38.0094 52.0006ZM56.4414 86.5606C59.7694 86.5606 62.2974 86.4326 64.0254 86.1766C65.8174 85.8566 67.0974 85.3446 67.8654 84.6406C68.6334 83.8726 69.0174 82.8486 69.0174 81.5686C69.0174 79.9046 68.0894 78.7206 66.2334 78.0166C64.4414 77.2486 61.1774 76.8646 56.4414 76.8646L38.0094 76.8646V86.5606L56.4414 86.5606Z" fill="black"/>
<path d="M71.7054 69.4726L69.2662 60.8094L71.7054 78.4726V69.4726ZM90.6174 94.5286L98.1303 99.4839L98.1542 99.4478L98.1777 99.4113L90.6174 94.5286ZM79.9614 101.633L82.7432 110.192L82.7914 110.176L82.8394 110.16L79.9614 101.633ZM15.4494 104.129L6.45702 103.758L6.07059 113.129H15.4494L15.4494 104.129ZM15.4494 34.4326L15.4494 25.4326L6.07059 25.4326L6.45702 34.8034L15.4494 34.4326ZM38.0094 34.4326L47.0094 34.4326V25.4326L38.0094 25.4326V34.4326ZM38.0094 34.5286H29.0094L29.0094 43.5286H38.0094V34.5286ZM77.1774 36.5446L74.6247 45.175L74.6965 45.1962L74.7686 45.2163L77.1774 36.5446ZM86.8734 42.2086L79.6512 47.5789L79.695 47.6378L79.7398 47.696L86.8734 42.2086ZM85.6254 62.1766L78.9219 56.1714L78.9145 56.1796L85.6254 62.1766ZM38.0094 52.0006V43.0006H29.0094V52.0006H38.0094ZM38.0094 60.9286H29.0094V69.9286H38.0094V60.9286ZM64.6974 59.8726L61.0727 51.6348L61.0099 51.6624L60.9475 51.691L64.6974 59.8726ZM64.6014 52.9606L61.2589 61.3169L61.4564 61.3959L61.6574 61.4655L64.6014 52.9606ZM64.0254 86.1766L65.3443 95.0794L65.4762 95.0599L65.6075 95.0364L64.0254 86.1766ZM67.8654 84.6406L73.9469 91.275L74.0911 91.1428L74.2293 91.0046L67.8654 84.6406ZM66.2334 78.0166L62.6881 86.2889L62.8633 86.364L63.0415 86.4316L66.2334 78.0166ZM38.0094 76.8646V67.8646H29.0094V76.8646H38.0094ZM38.0094 86.5606H29.0094V95.5606H38.0094V86.5606ZM71.7054 78.4726C78.3372 78.4726 81.7703 79.5794 83.2917 80.5469C83.9245 80.9494 84.1443 81.2714 84.254 81.4807C84.378 81.7174 84.5934 82.2651 84.5934 83.3926H102.593C102.593 75.9449 99.4166 69.4701 92.9511 65.3583C87.1764 61.6858 79.6655 60.4726 71.7054 60.4726V78.4726ZM84.5934 83.3926C84.5934 86.3463 83.9352 88.2861 83.057 89.6459L98.1777 99.4113C101.268 94.6271 102.593 89.1429 102.593 83.3926H84.5934ZM83.1044 89.5733C82.6555 90.2539 81.2101 91.7124 77.0834 93.1052L82.8394 110.16C88.9527 108.097 94.6112 104.819 98.1303 99.4839L83.1044 89.5733ZM77.1796 93.0733C73.3663 94.3126 67.348 95.1286 58.6494 95.1286L58.6494 113.129C68.1267 113.129 76.3165 112.281 82.7432 110.192L77.1796 93.0733ZM58.6494 95.1286L15.4494 95.1286L15.4494 113.129L58.6494 113.129L58.6494 95.1286ZM24.4417 104.499C24.9581 91.9776 25.2174 80.2368 25.2174 69.2806L7.21738 69.2806C7.21738 79.9564 6.96465 91.4476 6.45702 103.758L24.4417 104.499ZM25.2174 69.2806C25.2174 58.3244 24.9581 46.5836 24.4417 34.0618L6.45702 34.8034C6.96465 47.1136 7.21738 58.6048 7.21738 69.2806L25.2174 69.2806ZM15.4494 43.4326L38.0094 43.4326V25.4326L15.4494 25.4326L15.4494 43.4326ZM29.0094 34.4326V34.5286L47.0094 34.5286V34.4326L29.0094 34.4326ZM38.0094 43.5286L58.4574 43.5286V25.5286L38.0094 25.5286V43.5286ZM58.4574 43.5286C66.0275 43.5286 71.2803 44.1858 74.6247 45.175L79.73 27.9142C73.9864 26.2154 66.7592 25.5286 58.4574 25.5286V43.5286ZM74.7686 45.2163C78.4288 46.233 79.4786 47.3468 79.6512 47.5789L94.0955 36.8383C90.5561 32.0784 85.142 29.4162 79.5862 27.8729L74.7686 45.2163ZM79.7398 47.696C80.2027 48.2978 80.7534 49.4105 80.7534 51.7126L98.7534 51.7126C98.7534 46.3347 97.3841 41.1114 94.007 36.7212L79.7398 47.696ZM80.7534 51.7126C80.7534 53.2674 80.2863 54.6483 78.9219 56.1714L92.3289 68.1818C96.4684 63.5609 98.7534 57.9658 98.7534 51.7126L80.7534 51.7126ZM78.9145 56.1796C77.9127 57.3006 75.2304 59.1302 69.2662 60.8094L74.1445 78.1358C81.3643 76.103 87.962 73.0686 92.3363 68.1736L78.9145 56.1796ZM29.0094 52.0006V60.9286H47.0094V52.0006L29.0094 52.0006ZM38.0094 69.9286L56.4414 69.9286V51.9286L38.0094 51.9286V69.9286ZM56.4414 69.9286C60.4122 69.9286 64.9536 69.6555 68.4473 68.0542L60.9475 51.691C61.365 51.4996 61.3133 51.6128 60.3395 51.7373C59.4648 51.8492 58.1912 51.9286 56.4414 51.9286V69.9286ZM68.322 68.1104C70.5068 67.1491 72.6273 65.5579 74.1294 63.1546C75.6086 60.7878 76.0974 58.2599 76.0974 56.0326H58.0974C58.0974 55.6613 58.1861 54.7014 58.8654 53.6146C59.5675 52.4913 60.4879 51.8921 61.0727 51.6348L68.322 68.1104ZM76.0974 56.0326C76.0974 53.4834 75.3294 50.7881 73.4584 48.4853C71.6871 46.3052 69.446 45.1136 67.5454 44.4557L61.6574 61.4655C61.4208 61.3836 60.4276 60.992 59.4883 59.8359C58.4493 58.5571 58.0974 57.1098 58.0974 56.0326H76.0974ZM67.9439 44.6043C64.6092 43.2704 60.3636 43.0006 56.4414 43.0006V61.0006C58.1378 61.0006 59.4062 61.0726 60.3098 61.179C61.2874 61.294 61.4938 61.4108 61.2589 61.3169L67.9439 44.6043ZM56.4414 43.0006L38.0094 43.0006V61.0006L56.4414 61.0006V43.0006ZM56.4414 95.5606C59.8917 95.5606 62.9491 95.4343 65.3443 95.0794L62.7064 77.2738C61.6457 77.4309 59.6471 77.5606 56.4414 77.5606V95.5606ZM65.6075 95.0364C67.9799 94.6128 71.2937 93.7071 73.9469 91.275L61.7839 78.0062C62.1075 77.7096 62.3963 77.514 62.5985 77.3939C62.8 77.2743 62.9399 77.2151 62.9869 77.1963C63.0622 77.1662 62.9161 77.2323 62.4433 77.3168L65.6075 95.0364ZM74.2293 91.0046C76.984 88.25 78.0174 84.7769 78.0174 81.5686H60.0174C60.0174 81.3098 60.0569 80.7912 60.3024 80.1365C60.5583 79.4541 60.9705 78.8076 61.5014 78.2766L74.2293 91.0046ZM78.0174 81.5686C78.0174 78.9501 77.2434 76.2263 75.4049 73.8807C73.6544 71.6473 71.4097 70.3543 69.4253 69.6016L63.0415 86.4316C62.9131 86.3829 62.0604 86.0339 61.2379 84.9845C60.3274 83.8229 60.0174 82.5231 60.0174 81.5686H78.0174ZM69.7786 69.7443C66.1063 68.1704 61.1349 67.8646 56.4414 67.8646V85.8646C58.5968 85.8646 60.2218 85.9535 61.3898 86.091C62.6649 86.241 62.9464 86.3996 62.6881 86.2889L69.7786 69.7443ZM56.4414 67.8646L38.0094 67.8646V85.8646L56.4414 85.8646V67.8646ZM29.0094 76.8646L29.0094 86.5606H47.0094V76.8646H29.0094ZM38.0094 95.5606L56.4414 95.5606V77.5606L38.0094 77.5606V95.5606Z" fill="white" mask="url(#path-3-outside-2_9_5)"/>
<mask id="path-5-outside-3_9_5" maskUnits="userSpaceOnUse" x="67" y="28" width="106" height="78" fill="black">
<rect fill="white" x="67" y="28" width="106" height="78"/>
<path d="M161.749 34.66L160.039 37.27C153.619 47.23 148.099 56.05 143.479 63.73C138.919 71.35 135.109 78.37 132.049 84.79L132.049 100H108.559V83.26C106.339 78.76 103.729 74.14 100.729 69.4C97.7288 64.6 93.4688 58.03 87.9488 49.69C83.6288 43.33 80.3288 38.32 78.0488 34.66L103.249 34.66C105.049 38.32 107.989 43.75 112.069 50.95C116.149 58.27 118.939 63.43 120.439 66.43C122.539 62.05 125.359 56.68 128.899 50.32C133.039 42.88 135.829 37.66 137.269 34.66L161.749 34.66Z"/>
</mask>
<path d="M161.749 34.66L160.039 37.27C153.619 47.23 148.099 56.05 143.479 63.73C138.919 71.35 135.109 78.37 132.049 84.79L132.049 100H108.559V83.26C106.339 78.76 103.729 74.14 100.729 69.4C97.7288 64.6 93.4688 58.03 87.9488 49.69C83.6288 43.33 80.3288 38.32 78.0488 34.66L103.249 34.66C105.049 38.32 107.989 43.75 112.069 50.95C116.149 58.27 118.939 63.43 120.439 66.43C122.539 62.05 125.359 56.68 128.899 50.32C133.039 42.88 135.829 37.66 137.269 34.66L161.749 34.66Z" fill="black"/>
<path d="M161.749 34.66L166.768 37.9482L172.853 28.66H161.749V34.66ZM160.039 37.27L155.02 33.9818L155.008 34.0005L154.996 34.0193L160.039 37.27ZM143.479 63.73L138.337 60.6371L138.33 60.649L143.479 63.73ZM132.049 84.79L126.633 82.2084L126.049 83.4332V84.79H132.049ZM132.049 100V106H138.049V100H132.049ZM108.559 100H102.559V106H108.559V100ZM108.559 83.26H114.559V81.8605L113.94 80.6055L108.559 83.26ZM100.729 69.4L95.6408 72.58L95.6499 72.5944L95.6589 72.6088L100.729 69.4ZM87.9488 49.69L92.9522 46.3784L92.9323 46.3484L92.9121 46.3187L87.9488 49.69ZM78.0488 34.66V28.66H67.2421L72.9562 37.8325L78.0488 34.66ZM103.249 34.66L108.633 32.0121L106.984 28.66H103.249V34.66ZM112.069 50.95L117.31 48.0288L117.299 48.0103L117.289 47.9919L112.069 50.95ZM120.439 66.43L115.072 69.1133L120.552 80.0725L125.849 69.024L120.439 66.43ZM128.899 50.32L134.141 53.238L134.142 53.2374L128.899 50.32ZM137.269 34.66V28.66H133.493L131.86 32.0636L137.269 34.66ZM156.73 31.3718L155.02 33.9818L165.058 40.5582L166.768 37.9482L156.73 31.3718ZM154.996 34.0193C148.552 44.0159 142.998 52.8903 138.337 60.6371L148.62 66.8229C153.2 59.2097 158.686 50.4441 165.082 40.5207L154.996 34.0193ZM138.33 60.649C133.696 68.3933 129.791 75.5821 126.633 82.2084L137.465 87.3716C140.427 81.1579 144.142 74.3067 148.627 66.811L138.33 60.649ZM126.049 84.79V100H138.049L138.049 84.79H126.049ZM132.049 94H108.559V106H132.049V94ZM114.559 100V83.26H102.559V100H114.559ZM113.94 80.6055C111.616 75.8947 108.899 71.0898 105.799 66.1912L95.6589 72.6088C98.5586 77.1902 101.062 81.6253 103.178 85.9145L113.94 80.6055ZM105.817 66.22C102.776 61.3547 98.4828 54.7345 92.9522 46.3784L82.9455 53.0016C88.4549 61.3255 92.6817 67.8453 95.6408 72.58L105.817 66.22ZM92.9121 46.3187C88.608 39.9821 85.3595 35.0479 83.1415 31.4875L72.9562 37.8325C75.2982 41.5921 78.6496 46.6779 82.9855 53.0613L92.9121 46.3187ZM78.0488 40.66L103.249 40.66L103.249 28.66L78.0488 28.66V40.66ZM97.8647 37.3079C99.7455 41.1321 102.757 46.6872 106.849 53.9081L117.289 47.9919C113.221 40.8128 110.352 35.5079 108.633 32.0121L97.8647 37.3079ZM106.828 53.8711C110.91 61.1943 113.639 66.2475 115.072 69.1133L125.805 63.7467C124.238 60.6125 121.388 55.3457 117.31 48.0288L106.828 53.8711ZM125.849 69.024C127.878 64.7931 130.635 59.5384 134.141 53.238L123.656 47.4019C120.083 53.8216 117.2 59.3069 115.029 63.836L125.849 69.024ZM134.142 53.2374C138.278 45.8046 141.15 40.4394 142.678 37.2564L131.86 32.0636C130.508 34.8806 127.8 39.9553 123.656 47.4025L134.142 53.2374ZM137.269 40.66L161.749 40.66V28.66L137.269 28.66V40.66Z" fill="#FF0000" mask="url(#path-5-outside-3_9_5)"/>
<mask id="path-7-outside-4_9_5" maskUnits="userSpaceOnUse" x="9" y="28.1286" width="91" height="82" fill="black">
<rect fill="white" x="9" y="28.1286" width="91" height="82"/>
<path d="M71.7054 69.4726C86.2974 69.4726 93.5934 74.1126 93.5934 83.3926C93.5934 87.7446 92.6014 91.4566 90.6174 94.5286C88.6334 97.5366 85.0814 99.9046 79.9614 101.633C74.8414 103.297 67.7374 104.129 58.6494 104.129L15.4494 104.129C15.9614 91.7126 16.2174 80.0966 16.2174 69.2806C16.2174 58.4646 15.9614 46.8486 15.4494 34.4326L38.0094 34.4326V34.5286L58.4574 34.5286C66.3934 34.5286 72.6334 35.2006 77.1774 36.5446C81.7854 37.8246 85.0174 39.7126 86.8734 42.2086C88.7934 44.7046 89.7534 47.8726 89.7534 51.7126C89.7534 55.6166 88.3774 59.1046 85.6254 62.1766C82.9374 65.1846 78.2974 67.6166 71.7054 69.4726ZM38.0094 52.0006V60.9286L56.4414 60.9286C60.4094 60.9286 63.1614 60.5766 64.6974 59.8726C66.2974 59.1686 67.0974 57.8886 67.0974 56.0326C67.0974 54.5606 66.2654 53.5366 64.6014 52.9606C63.0014 52.3206 60.2814 52.0006 56.4414 52.0006L38.0094 52.0006ZM56.4414 86.5606C59.7694 86.5606 62.2974 86.4326 64.0254 86.1766C65.8174 85.8566 67.0974 85.3446 67.8654 84.6406C68.6334 83.8726 69.0174 82.8486 69.0174 81.5686C69.0174 79.9046 68.0894 78.7206 66.2334 78.0166C64.4414 77.2486 61.1774 76.8646 56.4414 76.8646L38.0094 76.8646V86.5606L56.4414 86.5606Z"/>
</mask>
<path d="M71.7054 69.4726C86.2974 69.4726 93.5934 74.1126 93.5934 83.3926C93.5934 87.7446 92.6014 91.4566 90.6174 94.5286C88.6334 97.5366 85.0814 99.9046 79.9614 101.633C74.8414 103.297 67.7374 104.129 58.6494 104.129L15.4494 104.129C15.9614 91.7126 16.2174 80.0966 16.2174 69.2806C16.2174 58.4646 15.9614 46.8486 15.4494 34.4326L38.0094 34.4326V34.5286L58.4574 34.5286C66.3934 34.5286 72.6334 35.2006 77.1774 36.5446C81.7854 37.8246 85.0174 39.7126 86.8734 42.2086C88.7934 44.7046 89.7534 47.8726 89.7534 51.7126C89.7534 55.6166 88.3774 59.1046 85.6254 62.1766C82.9374 65.1846 78.2974 67.6166 71.7054 69.4726ZM38.0094 52.0006V60.9286L56.4414 60.9286C60.4094 60.9286 63.1614 60.5766 64.6974 59.8726C66.2974 59.1686 67.0974 57.8886 67.0974 56.0326C67.0974 54.5606 66.2654 53.5366 64.6014 52.9606C63.0014 52.3206 60.2814 52.0006 56.4414 52.0006L38.0094 52.0006ZM56.4414 86.5606C59.7694 86.5606 62.2974 86.4326 64.0254 86.1766C65.8174 85.8566 67.0974 85.3446 67.8654 84.6406C68.6334 83.8726 69.0174 82.8486 69.0174 81.5686C69.0174 79.9046 68.0894 78.7206 66.2334 78.0166C64.4414 77.2486 61.1774 76.8646 56.4414 76.8646L38.0094 76.8646V86.5606L56.4414 86.5606Z" fill="black"/>
<path d="M71.7054 69.4726L70.0793 63.6971L71.7054 75.4726V69.4726ZM90.6174 94.5286L95.626 97.8322L95.6419 97.808L95.6576 97.7838L90.6174 94.5286ZM79.9614 101.633L81.8159 107.339L81.848 107.328L81.88 107.318L79.9614 101.633ZM15.4494 104.129L9.45447 103.881L9.19685 110.129H15.4494L15.4494 104.129ZM15.4494 34.4326L15.4494 28.4326H9.19685L9.45447 34.6798L15.4494 34.4326ZM38.0094 34.4326L44.0094 34.4326V28.4326L38.0094 28.4326V34.4326ZM38.0094 34.5286H32.0094V40.5286H38.0094V34.5286ZM77.1774 36.5446L75.4756 42.2982L75.5234 42.3124L75.5715 42.3257L77.1774 36.5446ZM86.8734 42.2086L82.0586 45.7888L82.0878 45.8281L82.1176 45.8669L86.8734 42.2086ZM85.6254 62.1766L81.1564 58.1731L81.1514 58.1786L85.6254 62.1766ZM38.0094 52.0006V46.0006H32.0094V52.0006H38.0094ZM38.0094 60.9286H32.0094V66.9286H38.0094V60.9286ZM64.6974 59.8726L62.2809 54.3807L62.2391 54.3991L62.1974 54.4182L64.6974 59.8726ZM64.6014 52.9606L62.373 58.5315L62.5047 58.5841L62.6387 58.6305L64.6014 52.9606ZM64.0254 86.1766L64.9047 92.1118L64.9926 92.0988L65.0801 92.0832L64.0254 86.1766ZM67.8654 84.6406L71.9197 89.0635L72.0158 88.9754L72.108 88.8832L67.8654 84.6406ZM66.2334 78.0166L63.8699 83.5315L63.9866 83.5815L64.1055 83.6266L66.2334 78.0166ZM38.0094 76.8646V70.8646H32.0094V76.8646H38.0094ZM38.0094 86.5606H32.0094V92.5606H38.0094V86.5606ZM71.7054 75.4726C78.5586 75.4726 82.6713 76.5971 84.9016 78.0155C86.6713 79.1409 87.5934 80.6244 87.5934 83.3926H99.5934C99.5934 76.8808 96.8675 71.4043 91.3412 67.8897C86.2754 64.6681 79.4441 63.4726 71.7054 63.4726V75.4726ZM87.5934 83.3926C87.5934 86.8124 86.8239 89.343 85.5771 91.2734L95.6576 97.7838C98.3788 93.5702 99.5934 88.6768 99.5934 83.3926H87.5934ZM85.6087 91.225C84.6481 92.6814 82.5005 94.4431 78.0427 95.9476L81.88 107.318C87.6622 105.366 92.6186 102.392 95.626 97.8322L85.6087 91.225ZM78.1069 95.9264C73.858 97.3073 67.4778 98.1286 58.6494 98.1286V110.129C67.997 110.129 75.8248 109.286 81.8159 107.339L78.1069 95.9264ZM58.6494 98.1286L15.4494 98.1286L15.4494 110.129L58.6494 110.129V98.1286ZM21.4443 104.376C21.9592 91.8893 22.2174 80.1901 22.2174 69.2806L10.2174 69.2806C10.2174 80.0031 9.96356 91.5359 9.45447 103.881L21.4443 104.376ZM22.2174 69.2806C22.2174 58.3711 21.9592 46.6719 21.4443 34.1854L9.45447 34.6798C9.96356 47.0253 10.2174 58.5581 10.2174 69.2806L22.2174 69.2806ZM15.4494 40.4326L38.0094 40.4326V28.4326L15.4494 28.4326L15.4494 40.4326ZM32.0094 34.4326V34.5286L44.0094 34.5286V34.4326L32.0094 34.4326ZM38.0094 40.5286L58.4574 40.5286V28.5286L38.0094 28.5286V40.5286ZM58.4574 40.5286C66.1495 40.5286 71.7314 41.1907 75.4756 42.2982L78.8791 30.791C73.5354 29.2104 66.6373 28.5286 58.4574 28.5286V40.5286ZM75.5715 42.3257C79.5477 43.4302 81.3249 44.8021 82.0586 45.7888L91.6882 38.6284C88.7099 34.6231 84.0231 32.219 78.7832 30.7635L75.5715 42.3257ZM82.1176 45.8669C83.0662 47.1 83.7534 48.8978 83.7534 51.7126L95.7534 51.7126C95.7534 46.8474 94.5205 42.3092 91.6291 38.5503L82.1176 45.8669ZM83.7534 51.7126C83.7534 54.0504 82.9833 56.1337 81.1564 58.1731L90.0944 66.1801C93.7714 62.0755 95.7534 57.1828 95.7534 51.7126L83.7534 51.7126ZM81.1514 58.1786C79.5876 59.9286 76.2527 61.959 70.0793 63.6971L73.3315 75.248C80.342 73.2742 86.2872 70.4406 90.0993 66.1746L81.1514 58.1786ZM32.0094 52.0006V60.9286H44.0094V52.0006L32.0094 52.0006ZM38.0094 66.9286L56.4414 66.9286V54.9286L38.0094 54.9286V66.9286ZM56.4414 66.9286C60.4112 66.9286 64.3562 66.6292 67.1973 65.327L62.1974 54.4182C62.2198 54.408 61.828 54.5714 60.7201 54.7131C59.6783 54.8463 58.2692 54.9286 56.4414 54.9286V66.9286ZM67.1138 65.3645C68.837 64.6063 70.4506 63.3802 71.5854 61.5646C72.7049 59.7734 73.0974 57.8268 73.0974 56.0326H61.0974C61.0974 56.0944 61.0899 55.7158 61.4094 55.2046C61.7441 54.669 62.1578 54.4349 62.2809 54.3807L67.1138 65.3645ZM73.0974 56.0326C73.0974 54.0878 72.5161 52.0829 71.1301 50.377C69.8105 48.753 68.1084 47.8253 66.564 47.2907L62.6387 58.6305C62.7583 58.6719 62.3042 58.5442 61.8167 57.9441C61.2627 57.2623 61.0974 56.5054 61.0974 56.0326H73.0974ZM66.8297 47.3897C64.0732 46.2871 60.3362 46.0006 56.4414 46.0006V58.0006C60.2266 58.0006 61.9295 58.3541 62.373 58.5315L66.8297 47.3897ZM56.4414 46.0006L38.0094 46.0006V58.0006L56.4414 58.0006V46.0006ZM56.4414 92.5606C59.8509 92.5606 62.7318 92.4337 64.9047 92.1118L63.1461 80.2414C61.8629 80.4315 59.6878 80.5606 56.4414 80.5606V92.5606ZM65.0801 92.0832C67.2591 91.6941 69.8949 90.9196 71.9197 89.0635L63.811 80.2177C64.1031 79.9499 64.2733 79.9129 64.101 79.9817C63.9379 80.047 63.5845 80.1604 62.9706 80.27L65.0801 92.0832ZM72.108 88.8832C74.2004 86.7908 75.0174 84.1341 75.0174 81.5686H63.0174C63.0174 81.6094 63.0117 81.4556 63.1114 81.1899C63.218 80.9056 63.3968 80.6239 63.6227 80.398L72.108 88.8832ZM75.0174 81.5686C75.0174 79.5456 74.424 77.4924 73.0437 75.7313C71.7221 74.0451 69.9936 73.0257 68.3613 72.4066L64.1055 83.6266C64.3292 83.7115 63.9927 83.6361 63.599 83.1339C63.4004 82.8804 63.2409 82.5833 63.1386 82.2695C63.0386 81.9626 63.0174 81.7144 63.0174 81.5686H75.0174ZM68.5969 72.5017C65.5513 71.1965 61.1491 70.8646 56.4414 70.8646V82.8646C61.2057 82.8646 63.3314 83.3007 63.8699 83.5315L68.5969 72.5017ZM56.4414 70.8646L38.0094 70.8646V82.8646L56.4414 82.8646V70.8646ZM32.0094 76.8646V86.5606H44.0094V76.8646H32.0094ZM38.0094 92.5606L56.4414 92.5606V80.5606L38.0094 80.5606V92.5606Z" fill="#FF0000" mask="url(#path-7-outside-4_9_5)"/>
</svg>
